<?xml version="1.0" encoding="UTF-8" standalone="no"?>
<svg xmlns="http://www.w3.org/2000/svg" width="50" height="50" viewBox="0 0 50 50">
    <defs>
        <style>
            .cls-1 {
                fill: #111;
            }
            .cls-2 {
                fill: #ce571d;
            }
        </style>
    </defs>
    <title>Widget Bar Bottom</title>
    <g id="Layer_2" data-name="Layer 2">
        <g id="widgetBarBottom">
            <path class="cls-1" d="M 47 33 v 2.5 v 9.5 H 5 V 35.5 v 14.5 H 47 z"/>
            <path class="cls-1" d="M23.11 38.2l.08.26.13.23a1.86 1.86 0 0 0 .1.2 2.52 2.52 0 0 0 .69.69l.2.1.23.13.26.08.2.11a2.69 2.69 0 0 0 1 0l.21-.06.26-.08.23-.13.2-.1a3.68 3.68 0 0 0 .38-.31l9.19-9.19a2.5 2.5 0 0 0-3.54-3.54L28 31.46V2.5a2.5 2.5 0 0 0-5 0v35a2.72 2.72 0 0 0 .05.49 1.66 1.66 0 0 0 .06.21z"/>
            <rect class="cls-2" x="13.82" y="24.73" width="5" height="11.17" rx="2.5" ry="2.5" transform="rotate(-45 16.32 30.32)"/></g>
    </g>
</svg>
