<?xml version="1.0" encoding="UTF-8" standalone="no"?>
<svg xmlns="http://www.w3.org/2000/svg" width="50" height="50" viewBox="0 0 50 50">
    <defs>
        <style>
            .cls-1 {
                fill: #111;
            }
            .cls-2 {
                fill: #ce571d;
            }
        </style>
    </defs>
    <title>Tradingview Multi Window</title>
    <g id="Layer_2" data-name="Layer 2">
        <g id="tradingviewMulti"><path
            class="cls-1"
            d="M41.92 0H8.08A8.08 8.08 0 0 0 0 8.08v33.84A8.08 8.08 0 0 0 8.08 50h33.84A8.08 8.08 0 0 0 50 41.92V8.08A8.08 8.08 0 0 0 41.92 0zM45 41.92A3.08 3.08 0 0 1 41.92 45H8.08A3.08 3.08 0 0 1 5 41.92V8.08A3.08 3.08 0 0 1 8.08 5h33.84A3.08 3.08 0 0 1 45 8.08z"/>
            <circle class="cls-2" cx="17.5" cy="22" r="2.5"/><circle class="cls-1" cx="17.5" cy="33" r="2.5"/>
            <g><circle class="cls-2" cx="32.5" cy="22" r="2.5"/><circle class="cls-1" cx="32.5" cy="33" r="2.5"/></g>
        </g>
    </g>
</svg>
