<svg xmlns="http://www.w3.org/2000/svg" viewBox="0 0 440 440">
    <defs>
        <style>
            svg{
            filter: drop-shadow( 3px 3px 2px rgba(0, 0, 0, .7));
            }
            .cls-1 {
                fill: #ce571d;
            }
        </style>
    </defs>
    <title>Element 1</title>
    <g id="Ebene_2" data-name="Ebene 2">
        <g id="svg36">
            <g id="g30">
                <g id="g28">
                    <g id="g14"><path id="path12" class="cls-1" d="M317.6,187.66c0,49.17,29.58,85.56,75.07,110.23A207.26,207.26,0,0,0,317.6,30Z"/></g>
                    <g id="g18"><path id="path16" class="cls-1" d="M68.65,51.28A206.54,206.54,0,0,1,179.19,0V410.75a205.86,205.86,0,0,1-26.06-5.26V223.08c0-33,4.38-103.22-84.48-171.8Z"/></g>
                    <g id="g22"><path id="path20" class="cls-1" d="M96.87,223.09V380.8a207.27,207.27,0,0,1-75.07-268C67.29,137.52,96.87,173.92,96.87,223.09Z"/></g>
                    <g id="g26"><path id="path24" class="cls-1" d="M261.52,187.66V5.25A206,206,0,0,0,235.45,0V410.75A206.53,206.53,0,0,0,346,359.47C257.14,290.89,261.52,220.64,261.52,187.66Z"/></g>
                </g>
            </g>
        </g>
    </g>
</svg>
