<?xml version="1.0" encoding="UTF-8" standalone="no"?>
<svg
   xmlns:dc="http://purl.org/dc/elements/1.1/"
   xmlns:cc="http://creativecommons.org/ns#"
   xmlns:rdf="http://www.w3.org/1999/02/22-rdf-syntax-ns#"
   xmlns:svg="http://www.w3.org/2000/svg"
   xmlns="http://www.w3.org/2000/svg"
   id="svg36"
   xml:space="preserve"
   viewBox="0 0 1295.53 463.40979"
   height="463.40979"
   width="1295.53"
   version="1.1"><metadata
   id="metadata40"><rdf:RDF><cc:Work
       rdf:about=""><dc:format>image/svg+xml</dc:format><dc:type
         rdf:resource="http://purl.org/dc/dcmitype/StillImage" /></cc:Work></rdf:RDF></metadata>
<desc
   id="desc2">Created with Fabric.js 3.2.0</desc>
<defs
   id="defs4" />
<g
   id="g10"
   transform="matrix(9.53,0,0,9.53,941.34,232.915)">
		<g
   id="text8"
   style="font-style:normal;font-weight:400;font-size:20px;font-family:Dosis;white-space:pre;opacity:1;fill:#1e252b;fill-rule:nonzero;stroke:none;stroke-width:1;stroke-linecap:butt;stroke-linejoin:miter;stroke-miterlimit:4;"
   aria-label="crypTrax"><path
     id="path42"
     d="m -26.169999,6.4200002 q -1.32,0 -2.18,-0.5 -0.86,-0.5 -1.28,-1.36 -0.42,-0.86 -0.42,-1.94 V 0.50000021 q 0,-1.08 0.4,-1.94000001 0.42,-0.86 1.28,-1.36 0.88,-0.5 2.2,-0.5 0.84,0 1.46,0.22 0.64,0.2 0.98,0.5 0.36,0.3 0.36,0.58 0,0.14 -0.08,0.3 -0.06,0.14 -0.2,0.24 -0.12,0.1 -0.28,0.1 -0.18,0 -0.42,-0.18 -0.22,-0.2 -0.62,-0.38 -0.4,-0.18 -1.14,-0.18 -1.3,0 -1.98,0.7 -0.66,0.68000001 -0.66,1.90000001 V 2.6200002 q 0,1.22 0.66,1.92 0.68,0.68 2,0.68 0.76,0 1.18,-0.18 0.42,-0.2 0.64,-0.38 0.24,-0.2 0.44,-0.2 0.18,0 0.3,0.1 0.14,0.1 0.2,0.24 0.08,0.14 0.08,0.3 0,0.26 -0.36,0.58 -0.36,0.3 -1.02,0.52 -0.64,0.22 -1.54,0.22 z" /><path
     id="path44"
     d="m -20.847812,6.2800002 q -0.26,0 -0.46,-0.16 -0.18,-0.16 -0.18,-0.36 v -8.44 q 0,-0.24 0.18,-0.36 0.2,-0.14 0.46,-0.14 0.26,0 0.44,0.14 0.18,0.12 0.18,0.36 v 0.98 q 0.22,-0.42 0.6,-0.78 0.38,-0.36 0.9,-0.58 0.52,-0.24 1.18,-0.24 h 0.7 q 0.22,0 0.36,0.18 0.16,0.18 0.16,0.42 0,0.26 -0.16,0.44 -0.14,0.16 -0.36,0.16 h -0.7 q -0.66,0 -1.28,0.36 -0.6,0.36 -0.98,1.00000001 -0.38,0.64 -0.38,1.56 V 5.7600002 q 0,0.2 -0.2,0.36 -0.18,0.16 -0.46,0.16 z" /><path
     id="path46"
     d="m -15.226249,10.92 q -0.26,0 -0.44,-0.14 -0.18,-0.12 -0.18,-0.44 0,-0.24 0.1,-0.4199998 0.1,-0.18 0.32,-0.18 0.48,0 0.92,-0.3 0.44,-0.3 0.82,-0.86 0.38,-0.54 0.68,-1.24 0.3,-0.68 0.48,-1.46 l -3.28,-8.36 q -0.04,-0.12 -0.04,-0.2 0,-0.18 0.12,-0.3 0.14,-0.14 0.32,-0.22 0.2,-0.1 0.36,-0.1 0.16,0 0.28,0.08 0.14,0.06 0.18,0.2 l 2.74,7.36 2.5799997,-7.36 q 0.06,-0.14 0.18,-0.2 0.12,-0.08 0.26,-0.08 0.16,0 0.34,0.08 0.2,0.08 0.32,0.22 0.14,0.14 0.14,0.34 0,0.1 -0.04,0.18 l -3.0999997,8.38 q -0.3,0.8 -0.64,1.68 -0.34,0.88 -0.8,1.62 -0.44,0.76 -1.08,1.2399998 -0.64,0.48 -1.54,0.48 z" /><path
     id="path48"
     d="m -5.8278118,10.92 q -0.26,0 -0.46,-0.16 -0.18,-0.16 -0.18,-0.36 V -2.6799998 q 0,-0.24 0.18,-0.36 0.2,-0.14 0.46,-0.14 0.26,0 0.44,0.14 0.18,0.12 0.18,0.36 v 0.9 q 0.34,-0.58 1.02,-1.04 0.68,-0.48 1.66,-0.48 1,0 1.79999999,0.52 0.82,0.5 1.3,1.36 0.50000001,0.84000001 0.50000001,1.88000001 V 2.6200002 q 0,0.98 -0.50000001,1.86 -0.48,0.88 -1.28,1.42 -0.79999999,0.52 -1.75999999,0.52 -0.92,0 -1.64,-0.46 -0.72,-0.46 -1.06,-1.08 V 10.4 q 0,0.2 -0.2,0.36 -0.18,0.16 -0.46,0.16 z m 3.12,-5.6999998 q 0.66,0 1.22,-0.36 0.55999999,-0.38 0.89999999,-0.98 0.36,-0.6 0.36,-1.26 V 0.46000021 q 0,-0.66 -0.36,-1.24 -0.34,-0.58000001 -0.89999999,-0.94000001 -0.56,-0.38 -1.26,-0.38 -0.6,0 -1.16,0.32 -0.54,0.3 -0.9,0.86000001 -0.36,0.56 -0.36,1.38 V 3.2400002 q 0,0.3 0.32,0.78 0.32,0.46 0.88,0.84 0.56,0.36 1.26,0.36 z" /><path
     id="path50"
     d="m 6.7396882,6.2800002 q -0.26,0 -0.46,-0.12 -0.2,-0.14 -0.2,-0.4 v -12.86 h -3.36 q -0.24,0 -0.38,-0.18 -0.14,-0.2 -0.14,-0.44 0,-0.24 0.14,-0.42 0.14,-0.2 0.38,-0.2 h 8.0199998 q 0.26,0 0.38,0.2 0.12,0.18 0.12,0.4 0,0.24 -0.12,0.44 -0.12,0.2 -0.38,0.2 H 7.3996882 v 12.86 q 0,0.26 -0.22,0.4 -0.2,0.12 -0.44,0.12 z" /><path
     id="path52"
     d="m 13.370938,6.2800002 q -0.26,0 -0.46,-0.16 -0.18,-0.16 -0.18,-0.36 v -8.44 q 0,-0.24 0.18,-0.36 0.2,-0.14 0.46,-0.14 0.26,0 0.44,0.14 0.18,0.12 0.18,0.36 v 0.98 q 0.22,-0.42 0.6,-0.78 0.38,-0.36 0.9,-0.58 0.52,-0.24 1.18,-0.24 h 0.7 q 0.22,0 0.36,0.18 0.16,0.18 0.16,0.42 0,0.26 -0.16,0.44 -0.14,0.16 -0.36,0.16 h -0.7 q -0.66,0 -1.28,0.36 -0.6,0.36 -0.98,1.00000001 -0.38,0.64 -0.38,1.56 V 5.7600002 q 0,0.2 -0.2,0.36 -0.18,0.16 -0.46,0.16 z" /><path
     id="path54"
     d="m 21.432501,6.4200002 q -1.14,0 -1.94,-0.64 -0.78,-0.66 -0.78,-2 0,-1.1 0.58,-1.68 0.6,-0.6 1.64,-0.82 1.06,-0.24 2.44,-0.24 h 1.02 V 0.58000021 q 0,-0.66 -0.24,-1.28 -0.22,-0.64000001 -0.74,-1.04000001 -0.5,-0.42 -1.38,-0.42 -0.66,0 -1.08,0.14 -0.42,0.14 -0.66,0.3 -0.24,0.14 -0.4,0.14 -0.24,0 -0.4,-0.24 -0.14,-0.24 -0.14,-0.44 0,-0.28 0.42,-0.5 0.42,-0.24 1.04,-0.38 0.64,-0.16 1.26,-0.16 1.34,0 2.12,0.56 0.8,0.54 1.14,1.42 0.36,0.88000001 0.36,1.88000001 V 5.7600002 q 0,0.22 -0.18,0.38 -0.16,0.14 -0.46,0.14 -0.24,0 -0.44,-0.14 -0.18,-0.16 -0.18,-0.38 v -0.88 q -0.5,0.6 -1.24,1.08 -0.74,0.46 -1.76,0.46 z m 0.32,-1.1 q 0.66,0 1.26,-0.34 0.6,-0.34 0.98,-0.82 0.4,-0.5 0.4,-0.94 v -1.28 h -0.84 q -0.9,0 -1.72,0.12 -0.8,0.1 -1.32,0.46 -0.5,0.36 -0.5,1.14 0,0.86 0.5,1.26 0.52,0.4 1.24,0.4 z" /><path
     id="path56"
     d="m 28.102501,6.4200002 q -0.14,0 -0.32,-0.1 -0.18,-0.1 -0.32,-0.24 -0.12,-0.16 -0.12,-0.3 0,-0.16 0.08,-0.28 l 2.66,-4 -2.6,-3.88 q -0.02,-0.04 -0.06,-0.12 -0.04,-0.08 -0.04,-0.14 0,-0.16 0.12,-0.3 0.14,-0.16 0.32,-0.26 0.18,-0.1 0.36,-0.1 0.1,0 0.2,0.04 0.12,0.04 0.2,0.16 l 2.36,3.66000001 2.38,-3.66000001 q 0.06,-0.1 0.16,-0.14 0.12,-0.06 0.22,-0.06 0.18,0 0.36,0.1 0.18,0.08 0.3,0.24 0.14,0.14 0.14,0.32 0,0.12 -0.1,0.26 l -2.62,3.88 2.68,4 q 0.04,0.04 0.06,0.12 0.02,0.08 0.02,0.16 0,0.14 -0.12,0.3 -0.12,0.14 -0.3,0.24 -0.18,0.1 -0.36,0.1 -0.1,0 -0.22,-0.06 -0.1,-0.04 -0.16,-0.14 l -2.44,-3.74 -2.42,3.74 q -0.08,0.1 -0.2,0.14 -0.1,0.06 -0.22,0.06 z" /></g>
</g>
<g
   id="g30"
   transform="matrix(18.25,0,0,18.25,232.32,232.975)">
<g
   id="g28">
		<g
   id="g14"
   transform="translate(8.7,-2.27)">
<path
   id="path12"
   d="m 17.4125,10.2829 c 0,2.6943 1.621,4.6883 4.1138,6.0401 0.7628,-1.5264 1.1943,-3.2472 1.1943,-5.0696 0,-4.0487 -2.1197,-7.6003 -5.3081,-9.6121 0,2.7365 0,6.219 0,8.6416 z"
   transform="translate(-20.07,-8.98)"
   style="opacity:1;fill:#ce571d;fill-rule:nonzero;stroke:none;stroke-width:1;stroke-linecap:butt;stroke-linejoin:miter;stroke-miterlimit:4;" />
</g>
		<g
   id="g18"
   transform="translate(-4.57)">
<path
   id="path16"
   d="M 3.7618,2.8097 C 5.4143,1.3216 7.5061,0.3139 9.8189,0 v 22.5067 c -0.4866,-0.066 -0.9632,-0.1622 -1.4282,-0.2878 0,-3.5165 0,-8.6229 0,-9.9951 10e-5,-1.807 0.2399,-5.6564 -4.6289,-9.4141 z"
   transform="translate(-6.79,-11.25)"
   style="opacity:1;fill:#ce571d;fill-rule:nonzero;stroke:none;stroke-width:1;stroke-linecap:butt;stroke-linejoin:miter;stroke-miterlimit:4;" />
</g>
		<g
   id="g22"
   transform="translate(-8.71,2.27)">
<path
   id="path20"
   d="m 5.3081,12.2239 c 0,2.4226 0,5.9051 0,8.6416 C 2.1197,18.8536 0,15.3021 0,11.2534 0,9.431 0.4315,7.7102 1.1943,6.1838 3.6871,7.5355 5.3081,9.5296 5.3081,12.2239 Z"
   transform="translate(-2.65,-13.52)"
   style="opacity:1;fill:#ce571d;fill-rule:nonzero;stroke:none;stroke-width:1;stroke-linecap:butt;stroke-linejoin:miter;stroke-miterlimit:4;" />
</g>
		<g
   id="g26"
   transform="translate(4.57)">
<path
   id="path24"
   d="m 14.3298,10.2829 c 0,-1.3722 0,-6.4786 0,-9.9951 C 13.8649,0.1622 13.3882,0.066 12.9016,0 v 22.5067 c 2.3128,-0.3139 4.4046,-1.3216 6.0571,-2.8096 -4.8687,-3.7578 -4.6289,-7.6072 -4.6289,-9.4142 z"
   transform="translate(-15.93,-11.25)"
   style="opacity:1;fill:#ce571d;fill-rule:nonzero;stroke:none;stroke-width:1;stroke-linecap:butt;stroke-linejoin:miter;stroke-miterlimit:4;" />
</g>
</g>
</g>
<g
   id="g34"
   transform="matrix(9.53,0,0,9.53,555.52,229.895)">
<path
   id="rect32"
   d="m -1,-21.5 h 2 v 43 h -2 z"
   style="opacity:1;fill:#c7c9ca;fill-rule:nonzero;stroke:none;stroke-width:0;stroke-linecap:butt;stroke-linejoin:miter;stroke-miterlimit:4;" />
</g>
</svg>
