<svg id="eDu0zGCv39x1" xmlns="http://www.w3.org/2000/svg" xmlns:xlink="http://www.w3.org/1999/xlink" viewBox="0 0 1295.53 463.40979" shape-rendering="geometricPrecision" text-rendering="geometricPrecision"><g id="eDu0zGCv39x2" transform="matrix(9.53 0 0 9.53 941.34 232.915)"><g id="eDu0zGCv39x3"><path id="eDu0zGCv39x4" d="M-26.169999,6.42Q-27.489999,6.42,-28.349999,5.92Q-29.209999,5.42,-29.629999,4.56Q-30.049999,3.7,-30.049999,2.62L-30.049999,0.5Q-30.049999,-0.58,-29.649999,-1.44Q-29.229999,-2.3,-28.369999,-2.8Q-27.489999,-3.3,-26.169999,-3.3Q-25.329999,-3.3,-24.709999,-3.08Q-24.069999,-2.88,-23.729999,-2.58Q-23.369999,-2.28,-23.369999,-2Q-23.369999,-1.86,-23.449999,-1.7Q-23.509999,-1.56,-23.649999,-1.46Q-23.769999,-1.36,-23.929999,-1.36Q-24.109999,-1.36,-24.349999,-1.54Q-24.569999,-1.74,-24.969999,-1.92Q-25.369999,-2.1,-26.109999,-2.1Q-27.409999,-2.1,-28.089999,-1.4Q-28.749999,-0.72,-28.749999,0.5L-28.749999,2.62Q-28.749999,3.84,-28.089999,4.54Q-27.409999,5.22,-26.089999,5.22Q-25.329999,5.22,-24.909999,5.04Q-24.489999,4.84,-24.269999,4.66Q-24.029999,4.46,-23.829999,4.46Q-23.649999,4.46,-23.529999,4.56Q-23.389999,4.66,-23.329999,4.8Q-23.249999,4.94,-23.249999,5.1Q-23.249999,5.36,-23.609999,5.68Q-23.969999,5.98,-24.629999,6.2Q-25.269999,6.42,-26.169999,6.42Z" fill="rgb(30,37,43)" stroke="none" stroke-width="1"/><path id="eDu0zGCv39x5" d="M-20.847812,6.28Q-21.107812,6.28,-21.307812,6.12Q-21.487812,5.96,-21.487812,5.76L-21.487812,-2.68Q-21.487812,-2.92,-21.307812,-3.04Q-21.107812,-3.18,-20.847812,-3.18Q-20.587812,-3.18,-20.407812,-3.04Q-20.227812,-2.92,-20.227812,-2.68L-20.227812,-1.7Q-20.007812,-2.12,-19.627812,-2.48Q-19.247812,-2.84,-18.727812,-3.06Q-18.207812,-3.3,-17.547812,-3.3L-16.847812,-3.3Q-16.627812,-3.3,-16.487812,-3.12Q-16.327812,-2.94,-16.327812,-2.7Q-16.327812,-2.44,-16.487812,-2.26Q-16.627812,-2.1,-16.847812,-2.1L-17.547812,-2.1Q-18.207812,-2.1,-18.827812,-1.74Q-19.427812,-1.38,-19.807812,-0.74Q-20.187812,-0.1,-20.187812,0.82L-20.187812,5.76Q-20.187812,5.96,-20.387812,6.12Q-20.567812,6.28,-20.847812,6.28Z" fill="rgb(30,37,43)" stroke="none" stroke-width="1"/><path id="eDu0zGCv39x6" d="M-15.226249,10.92Q-15.486249,10.92,-15.666249,10.78Q-15.846249,10.66,-15.846249,10.34Q-15.846249,10.1,-15.746249,9.92Q-15.646249,9.74,-15.426249,9.74Q-14.946249,9.74,-14.506249,9.44Q-14.066249,9.14,-13.686249,8.58Q-13.306249,8.04,-13.006249,7.34Q-12.706249,6.66,-12.526249,5.88L-15.806249,-2.48Q-15.846249,-2.6,-15.846249,-2.68Q-15.846249,-2.86,-15.726249,-2.98Q-15.586249,-3.12,-15.406249,-3.2Q-15.206249,-3.3,-15.046249,-3.3Q-14.886249,-3.3,-14.766249,-3.22Q-14.626249,-3.16,-14.586249,-3.02L-11.846249,4.34L-9.266249,-3.02Q-9.206249,-3.16,-9.086249,-3.22Q-8.966249,-3.3,-8.826249,-3.3Q-8.666249,-3.3,-8.486249,-3.22Q-8.286249,-3.14,-8.166249,-3Q-8.026249,-2.86,-8.026249,-2.66Q-8.026249,-2.56,-8.066249,-2.48L-11.166249,5.9Q-11.466249,6.7,-11.806249,7.58Q-12.146249,8.46,-12.606249,9.2Q-13.046249,9.96,-13.686249,10.44Q-14.326249,10.92,-15.226249,10.92Z" fill="rgb(30,37,43)" stroke="none" stroke-width="1"/><path id="eDu0zGCv39x7" d="M-5.827812,10.92Q-6.087812,10.92,-6.287812,10.76Q-6.467812,10.6,-6.467812,10.4L-6.467812,-2.68Q-6.467812,-2.92,-6.287812,-3.04Q-6.087812,-3.18,-5.827812,-3.18Q-5.567812,-3.18,-5.387812,-3.04Q-5.207812,-2.92,-5.207812,-2.68L-5.207812,-1.78Q-4.867812,-2.36,-4.187812,-2.82Q-3.507812,-3.3,-2.527812,-3.3Q-1.527812,-3.3,-0.727812,-2.78Q0.092188,-2.28,0.572188,-1.42Q1.072188,-0.58,1.072188,0.46L1.072188,2.62Q1.072188,3.6,0.572188,4.48Q0.092188,5.36,-0.707812,5.9Q-1.507812,6.42,-2.467812,6.42Q-3.387812,6.42,-4.107812,5.96Q-4.827812,5.5,-5.167812,4.88L-5.167812,10.4Q-5.167812,10.6,-5.367812,10.76Q-5.547812,10.92,-5.827812,10.92ZM-2.707812,5.22Q-2.047812,5.22,-1.487812,4.86Q-0.927812,4.48,-0.587812,3.88Q-0.227812,3.28,-0.227812,2.62L-0.227812,0.46Q-0.227812,-0.2,-0.587812,-0.78Q-0.927812,-1.36,-1.487812,-1.72Q-2.047812,-2.1,-2.747812,-2.1Q-3.347812,-2.1,-3.907812,-1.78Q-4.447812,-1.48,-4.807812,-0.92Q-5.167812,-0.36,-5.167812,0.46L-5.167812,3.24Q-5.167812,3.54,-4.847812,4.02Q-4.527812,4.48,-3.967812,4.86Q-3.407812,5.22,-2.707812,5.22Z" fill="rgb(30,37,43)" stroke="none" stroke-width="1"/><path id="eDu0zGCv39x8" d="M6.739688,6.28Q6.479688,6.28,6.279688,6.16Q6.079688,6.02,6.079688,5.76L6.079688,-7.1L2.719688,-7.1Q2.479688,-7.1,2.339688,-7.28Q2.199688,-7.48,2.199688,-7.72Q2.199688,-7.96,2.339688,-8.14Q2.479688,-8.34,2.719688,-8.34L10.739688,-8.34Q10.999688,-8.34,11.119688,-8.14Q11.239688,-7.96,11.239688,-7.74Q11.239688,-7.5,11.119688,-7.3Q10.999688,-7.1,10.739688,-7.1L7.399688,-7.1L7.399688,5.76Q7.399688,6.02,7.179688,6.16Q6.979688,6.28,6.739688,6.28Z" fill="rgb(30,37,43)" stroke="none" stroke-width="1"/><path id="eDu0zGCv39x9" d="M13.370938,6.28Q13.110938,6.28,12.910938,6.12Q12.730938,5.96,12.730938,5.76L12.730938,-2.68Q12.730938,-2.92,12.910938,-3.04Q13.110938,-3.18,13.370938,-3.18Q13.630938,-3.18,13.810938,-3.04Q13.990938,-2.92,13.990938,-2.68L13.990938,-1.7Q14.210938,-2.12,14.590938,-2.48Q14.970938,-2.84,15.490938,-3.06Q16.010938,-3.3,16.670938,-3.3L17.370938,-3.3Q17.590938,-3.3,17.730938,-3.12Q17.890938,-2.94,17.890938,-2.7Q17.890938,-2.44,17.730938,-2.26Q17.590938,-2.1,17.370938,-2.1L16.670938,-2.1Q16.010938,-2.1,15.390938,-1.74Q14.790938,-1.38,14.410938,-0.74Q14.030938,-0.1,14.030938,0.82L14.030938,5.76Q14.030938,5.96,13.830938,6.12Q13.650938,6.28,13.370938,6.28Z" fill="rgb(30,37,43)" stroke="none" stroke-width="1"/><path id="eDu0zGCv39x10" d="M21.432501,6.42Q20.292501,6.42,19.492501,5.78Q18.712501,5.12,18.712501,3.78Q18.712501,2.68,19.292501,2.1Q19.892501,1.5,20.932501,1.28Q21.992501,1.04,23.372501,1.04L24.392501,1.04L24.392501,0.58Q24.392501,-0.08,24.152501,-0.7Q23.932501,-1.34,23.412501,-1.74Q22.912501,-2.16,22.032501,-2.16Q21.372501,-2.16,20.952501,-2.02Q20.532501,-1.88,20.292501,-1.72Q20.052501,-1.58,19.892501,-1.58Q19.652501,-1.58,19.492501,-1.82Q19.352501,-2.06,19.352501,-2.26Q19.352501,-2.54,19.772501,-2.76Q20.192501,-3,20.812501,-3.14Q21.452501,-3.3,22.072501,-3.3Q23.412501,-3.3,24.192501,-2.74Q24.992501,-2.2,25.332501,-1.32Q25.692501,-0.44,25.692501,0.56L25.692501,5.76Q25.692501,5.98,25.512501,6.14Q25.352501,6.28,25.052501,6.28Q24.812501,6.28,24.612501,6.14Q24.432501,5.98,24.432501,5.76L24.432501,4.88Q23.932501,5.48,23.192501,5.96Q22.452501,6.42,21.432501,6.42ZM21.752501,5.32Q22.412501,5.32,23.012501,4.98Q23.612501,4.64,23.992501,4.16Q24.392501,3.66,24.392501,3.22L24.392501,1.94L23.552501,1.94Q22.652501,1.94,21.832501,2.06Q21.032501,2.16,20.512501,2.52Q20.012501,2.88,20.012501,3.66Q20.012501,4.52,20.512501,4.92Q21.032501,5.32,21.752501,5.32Z" fill="rgb(30,37,43)" stroke="none" stroke-width="1"/><path id="eDu0zGCv39x11" d="M28.102501,6.42Q27.962501,6.42,27.782501,6.32Q27.602501,6.22,27.462501,6.08Q27.342501,5.92,27.342501,5.78Q27.342501,5.62,27.422501,5.5L30.082501,1.5L27.482501,-2.38Q27.462501,-2.42,27.422501,-2.5Q27.382501,-2.58,27.382501,-2.64Q27.382501,-2.8,27.502501,-2.94Q27.642501,-3.1,27.822501,-3.2Q28.002501,-3.3,28.182501,-3.3Q28.282501,-3.3,28.382501,-3.26Q28.502501,-3.22,28.582501,-3.1L30.942501,0.56L33.322501,-3.1Q33.382501,-3.2,33.482501,-3.24Q33.602501,-3.3,33.702501,-3.3Q33.882501,-3.3,34.062501,-3.2Q34.242501,-3.12,34.362501,-2.96Q34.502501,-2.82,34.502501,-2.64Q34.502501,-2.52,34.402501,-2.38L31.782501,1.5L34.462501,5.5Q34.502501,5.54,34.522501,5.62Q34.542501,5.7,34.542501,5.78Q34.542501,5.92,34.422501,6.08Q34.302501,6.22,34.122501,6.32Q33.942501,6.42,33.762501,6.42Q33.662501,6.42,33.542501,6.36Q33.442501,6.32,33.382501,6.22L30.942501,2.48L28.522501,6.22Q28.442501,6.32,28.322501,6.36Q28.222501,6.42,28.102501,6.42Z" fill="rgb(30,37,43)" stroke="none" stroke-width="1"/></g></g><g id="eDu0zGCv39x12" transform="matrix(18.25 0 0 18.25 232.32 232.975)"><g id="eDu0zGCv39x13"><g id="eDu0zGCv39x14" transform="matrix(1 0 0 1 8.7 -2.27)"><path id="eDu0zGCv39x15" d="M17.4125,10.2829C17.4125,12.9772,19.0335,14.9712,21.5263,16.323C22.2891,14.7966,22.7206,13.0758,22.7206,11.2534C22.7206,7.2047,20.6009,3.6531,17.4125,1.6413C17.4125,4.3778,17.4125,7.8603,17.4125,10.2829Z" transform="matrix(1 0 0 1 -20.07 -8.98)" opacity="0" fill="rgb(206,87,29)" stroke="none" stroke-width="1"/></g><g id="eDu0zGCv39x16" transform="matrix(1 0 0 1 -4.57 0)"><path id="eDu0zGCv39x17" d="M3.7618,2.8097C5.4143,1.3216,7.5061,0.3139,9.8189,0L9.8189,22.5067C9.3323,22.4407,8.8557,22.3445,8.3907,22.2189C8.3907,18.7024,8.3907,13.596,8.3907,12.2238C8.3908,10.4168,8.6306,6.5674,3.7618,2.8097Z" transform="matrix(1 0 0 1 -6.79 -11.25)" opacity="0" fill="rgb(206,87,29)" stroke="none" stroke-width="1"/></g><g id="eDu0zGCv39x18" transform="matrix(1 0 0 1 -8.71 2.27)"><path id="eDu0zGCv39x19" d="M5.3081,12.2239C5.3081,14.6465,5.3081,18.129,5.3081,20.8655C2.1197,18.8536,0,15.3021,0,11.2534C0,9.431,0.4315,7.7102,1.1943,6.1838C3.6871,7.5355,5.3081,9.5296,5.3081,12.2239Z" transform="matrix(1 0 0 1 -2.65 -13.52)" opacity="0" fill="rgb(206,87,29)" stroke="none" stroke-width="1"/></g><g id="eDu0zGCv39x20" transform="matrix(1 0 0 1 4.57 0)"><path id="eDu0zGCv39x21" d="M14.3298,10.2829C14.3298,8.9107,14.3298,3.8043,14.3298,0.2878C13.8649,0.1622,13.3882,0.066,12.9016,0L12.9016,22.5067C15.2144,22.1928,17.3062,21.1851,18.9587,19.6971C14.09,15.9393,14.3298,12.0899,14.3298,10.2829Z" transform="matrix(1 0 0 1 -15.93 -11.25)" opacity="0" fill="rgb(206,87,29)" stroke="none" stroke-width="1"/></g></g></g><g id="eDu0zGCv39x22" transform="matrix(9.53 0 0 9.53 555.52 229.895)"><path id="eDu0zGCv39x23" d="M-1,-21.5L1,-21.5L1,21.5L-1,21.5Z" fill="rgb(199,201,202)" stroke="none" stroke-width="0"/></g><script><![CDATA[!function(t,n){"object"==typeof exports&&"undefined"!=typeof module?module.exports=n():"function"==typeof define&&define.amd?define(n):((t="undefined"!=typeof globalThis?globalThis:t||self).__SVGATOR_PLAYER__=t.__SVGATOR_PLAYER__||{},t.__SVGATOR_PLAYER__["5c7f360c"]=n())}(this,(function(){"use strict";function t(t,n){var r=Object.keys(t);if(Object.getOwnPropertySymbols){var e=Object.getOwnPropertySymbols(t);n&&(e=e.filter((function(n){return Object.getOwnPropertyDescriptor(t,n).enumerable}))),r.push.apply(r,e)}return r}function n(n){for(var r=1;r<arguments.length;r++){var e=null!=arguments[r]?arguments[r]:{};r%2?t(Object(e),!0).forEach((function(t){u(n,t,e[t])})):Object.getOwnPropertyDescriptors?Object.defineProperties(n,Object.getOwnPropertyDescriptors(e)):t(Object(e)).forEach((function(t){Object.defineProperty(n,t,Object.getOwnPropertyDescriptor(e,t))}))}return n}function r(t){return(r="function"==typeof Symbol&&"symbol"==typeof Symbol.iterator?function(t){return typeof t}:function(t){return t&&"function"==typeof Symbol&&t.constructor===Symbol&&t!==Symbol.prototype?"symbol":typeof t})(t)}function e(t,n){if(!(t instanceof n))throw new TypeError("Cannot call a class as a function")}function i(t,n){for(var r=0;r<n.length;r++){var e=n[r];e.enumerable=e.enumerable||!1,e.configurable=!0,"value"in e&&(e.writable=!0),Object.defineProperty(t,e.key,e)}}function o(t,n,r){return n&&i(t.prototype,n),r&&i(t,r),t}function u(t,n,r){return n in t?Object.defineProperty(t,n,{value:r,enumerable:!0,configurable:!0,writable:!0}):t[n]=r,t}function a(t){return(a=Object.setPrototypeOf?Object.getPrototypeOf:function(t){return t.__proto__||Object.getPrototypeOf(t)})(t)}function l(t,n){return(l=Object.setPrototypeOf||function(t,n){return t.__proto__=n,t})(t,n)}function f(){if("undefined"==typeof Reflect||!Reflect.construct)return!1;if(Reflect.construct.sham)return!1;if("function"==typeof Proxy)return!0;try{return Boolean.prototype.valueOf.call(Reflect.construct(Boolean,[],(function(){}))),!0}catch(t){return!1}}function s(t,n,r){return(s=f()?Reflect.construct:function(t,n,r){var e=[null];e.push.apply(e,n);var i=new(Function.bind.apply(t,e));return r&&l(i,r.prototype),i}).apply(null,arguments)}function c(t,n){if(n&&("object"==typeof n||"function"==typeof n))return n;if(void 0!==n)throw new TypeError("Derived constructors may only return object or undefined");return function(t){if(void 0===t)throw new ReferenceError("this hasn't been initialised - super() hasn't been called");return t}(t)}function h(t,n,r){return(h="undefined"!=typeof Reflect&&Reflect.get?Reflect.get:function(t,n,r){var e=function(t,n){for(;!Object.prototype.hasOwnProperty.call(t,n)&&null!==(t=a(t)););return t}(t,n);if(e){var i=Object.getOwnPropertyDescriptor(e,n);return i.get?i.get.call(r):i.value}})(t,n,r||t)}function v(t){return function(t){if(Array.isArray(t))return y(t)}(t)||function(t){if("undefined"!=typeof Symbol&&null!=t[Symbol.iterator]||null!=t["@@iterator"])return Array.from(t)}(t)||function(t,n){if(!t)return;if("string"==typeof t)return y(t,n);var r=Object.prototype.toString.call(t).slice(8,-1);"Object"===r&&t.constructor&&(r=t.constructor.name);if("Map"===r||"Set"===r)return Array.from(t);if("Arguments"===r||/^(?:Ui|I)nt(?:8|16|32)(?:Clamped)?Array$/.test(r))return y(t,n)}(t)||function(){throw new TypeError("Invalid attempt to spread non-iterable instance.\nIn order to be iterable, non-array objects must have a [Symbol.iterator]() method.")}()}function y(t,n){(null==n||n>t.length)&&(n=t.length);for(var r=0,e=new Array(n);r<n;r++)e[r]=t[r];return e}var g=d(Math.pow(10,-6));function d(t){var n=arguments.length>1&&void 0!==arguments[1]?arguments[1]:6;if(Number.isInteger(t))return t;var r=Math.pow(10,n);return Math.round((+t+Number.EPSILON)*r)/r}function p(t,n){var r=arguments.length>2&&void 0!==arguments[2]?arguments[2]:g;return Math.abs(t-n)<r}var m=Math.PI/180;function b(t){return t}function w(t,n,r){var e=1-r;return 3*r*e*(t*e+n*r)+r*r*r}function x(){var t=arguments.length>0&&void 0!==arguments[0]?arguments[0]:0,n=arguments.length>1&&void 0!==arguments[1]?arguments[1]:0,r=arguments.length>2&&void 0!==arguments[2]?arguments[2]:1,e=arguments.length>3&&void 0!==arguments[3]?arguments[3]:1;return t<0||t>1||r<0||r>1?null:p(t,n)&&p(r,e)?b:function(i){if(i<=0)return t>0?i*n/t:0===n&&r>0?i*e/r:0;if(i>=1)return r<1?1+(i-1)*(e-1)/(r-1):1===r&&t<1?1+(i-1)*(n-1)/(t-1):1;for(var o,u=0,a=1;u<a;){var l=w(t,r,o=(u+a)/2);if(p(i,l))break;l<i?u=o:a=o}return w(n,e,o)}}function A(){return 1}function k(t){return 1===t?1:0}function S(){var t=arguments.length>0&&void 0!==arguments[0]?arguments[0]:1,n=arguments.length>1&&void 0!==arguments[1]?arguments[1]:0;if(1===t){if(0===n)return k;if(1===n)return A}var r=1/t;return function(t){return t>=1?1:(t+=n*r)-t%r}}var _=Math.sin,O=Math.cos,j=Math.acos,M=Math.asin,P=Math.tan,E=Math.atan2,I=Math.PI/180,R=180/Math.PI,F=Math.sqrt,N=function(){function t(){var n=arguments.length>0&&void 0!==arguments[0]?arguments[0]:1,r=arguments.length>1&&void 0!==arguments[1]?arguments[1]:0,i=arguments.length>2&&void 0!==arguments[2]?arguments[2]:0,o=arguments.length>3&&void 0!==arguments[3]?arguments[3]:1,u=arguments.length>4&&void 0!==arguments[4]?arguments[4]:0,a=arguments.length>5&&void 0!==arguments[5]?arguments[5]:0;e(this,t),this.m=[n,r,i,o,u,a],this.i=null,this.w=null,this.s=null}return o(t,[{key:"determinant",get:function(){var t=this.m;return t[0]*t[3]-t[1]*t[2]}},{key:"isIdentity",get:function(){if(null===this.i){var t=this.m;this.i=1===t[0]&&0===t[1]&&0===t[2]&&1===t[3]&&0===t[4]&&0===t[5]}return this.i}},{key:"point",value:function(t,n){var r=this.m;return{x:r[0]*t+r[2]*n+r[4],y:r[1]*t+r[3]*n+r[5]}}},{key:"translateSelf",value:function(){var t=arguments.length>0&&void 0!==arguments[0]?arguments[0]:0,n=arguments.length>1&&void 0!==arguments[1]?arguments[1]:0;if(!t&&!n)return this;var r=this.m;return r[4]+=r[0]*t+r[2]*n,r[5]+=r[1]*t+r[3]*n,this.w=this.s=this.i=null,this}},{key:"rotateSelf",value:function(){var t=arguments.length>0&&void 0!==arguments[0]?arguments[0]:0;if(t%=360){var n=_(t*=I),r=O(t),e=this.m,i=e[0],o=e[1];e[0]=i*r+e[2]*n,e[1]=o*r+e[3]*n,e[2]=e[2]*r-i*n,e[3]=e[3]*r-o*n,this.w=this.s=this.i=null}return this}},{key:"scaleSelf",value:function(){var t=arguments.length>0&&void 0!==arguments[0]?arguments[0]:1,n=arguments.length>1&&void 0!==arguments[1]?arguments[1]:1;if(1!==t||1!==n){var r=this.m;r[0]*=t,r[1]*=t,r[2]*=n,r[3]*=n,this.w=this.s=this.i=null}return this}},{key:"skewSelf",value:function(t,n){if(n%=360,(t%=360)||n){var r=this.m,e=r[0],i=r[1],o=r[2],u=r[3];t&&(t=P(t*I),r[2]+=e*t,r[3]+=i*t),n&&(n=P(n*I),r[0]+=o*n,r[1]+=u*n),this.w=this.s=this.i=null}return this}},{key:"resetSelf",value:function(){var t=arguments.length>0&&void 0!==arguments[0]?arguments[0]:1,n=arguments.length>1&&void 0!==arguments[1]?arguments[1]:0,r=arguments.length>2&&void 0!==arguments[2]?arguments[2]:0,e=arguments.length>3&&void 0!==arguments[3]?arguments[3]:1,i=arguments.length>4&&void 0!==arguments[4]?arguments[4]:0,o=arguments.length>5&&void 0!==arguments[5]?arguments[5]:0,u=this.m;return u[0]=t,u[1]=n,u[2]=r,u[3]=e,u[4]=i,u[5]=o,this.w=this.s=this.i=null,this}},{key:"recomposeSelf",value:function(){var t=arguments.length>0&&void 0!==arguments[0]?arguments[0]:null,n=arguments.length>1&&void 0!==arguments[1]?arguments[1]:null,r=arguments.length>2&&void 0!==arguments[2]?arguments[2]:null,e=arguments.length>3&&void 0!==arguments[3]?arguments[3]:null,i=arguments.length>4&&void 0!==arguments[4]?arguments[4]:null;return this.isIdentity||this.resetSelf(),t&&(t.x||t.y)&&this.translateSelf(t.x,t.y),n&&this.rotateSelf(n),r&&(r.x&&this.skewSelf(r.x,0),r.y&&this.skewSelf(0,r.y)),!e||1===e.x&&1===e.y||this.scaleSelf(e.x,e.y),i&&(i.x||i.y)&&this.translateSelf(i.x,i.y),this}},{key:"decompose",value:function(){var t=arguments.length>0&&void 0!==arguments[0]?arguments[0]:0,n=arguments.length>1&&void 0!==arguments[1]?arguments[1]:0,r=this.m,e=r[0]*r[0]+r[1]*r[1],i=[[r[0],r[1]],[r[2],r[3]]],o=F(e);if(0===o)return{origin:{x:d(r[4]),y:d(r[5])},translate:{x:d(t),y:d(n)},scale:{x:0,y:0},skew:{x:0,y:0},rotate:0};i[0][0]/=o,i[0][1]/=o;var u=r[0]*r[3]-r[1]*r[2]<0;u&&(o=-o);var a=i[0][0]*i[1][0]+i[0][1]*i[1][1];i[1][0]-=i[0][0]*a,i[1][1]-=i[0][1]*a;var l=F(i[1][0]*i[1][0]+i[1][1]*i[1][1]);if(0===l)return{origin:{x:d(r[4]),y:d(r[5])},translate:{x:d(t),y:d(n)},scale:{x:d(o),y:0},skew:{x:0,y:0},rotate:0};i[1][0]/=l,i[1][1]/=l,a/=l;var f=0;return i[1][1]<0?(f=j(i[1][1])*R,i[0][1]<0&&(f=360-f)):f=M(i[0][1])*R,u&&(f=-f),a=E(a,F(i[0][0]*i[0][0]+i[0][1]*i[0][1]))*R,u&&(a=-a),{origin:{x:d(r[4]),y:d(r[5])},translate:{x:d(t),y:d(n)},scale:{x:d(o),y:d(l)},skew:{x:d(a),y:0},rotate:d(f)}}},{key:"clone",value:function(){var t=this.m;return new this.constructor(t[0],t[1],t[2],t[3],t[4],t[5])}},{key:"toString",value:function(){var t=arguments.length>0&&void 0!==arguments[0]?arguments[0]:" ";return null===this.s&&(this.s="matrix("+this.m.map((function(t){return d(t)})).join(t)+")"),this.s}}],[{key:"create",value:function(t){return t?Array.isArray(t)?s(this,v(t)):t instanceof this?t.clone():(new this).recomposeSelf(t.origin,t.rotate,t.skew,t.scale,t.translate):new this}}]),t}();function T(t,n,r){return t>=.5?r:n}function B(t,n,r){return 0===t||n===r?n:t*(r-n)+n}function q(t,n,r){var e=B(t,n,r);return e<=0?0:e}function L(t,n,r){var e=B(t,n,r);return e<=0?0:e>=1?1:e}function C(t,n,r){return 0===t?n:1===t?r:{x:B(t,n.x,r.x),y:B(t,n.y,r.y)}}function D(t,n,r){var e=function(t,n,r){return Math.round(B(t,n,r))}(t,n,r);return e<=0?0:e>=255?255:e}function z(t,n,r){return 0===t?n:1===t?r:{r:D(t,n.r,r.r),g:D(t,n.g,r.g),b:D(t,n.b,r.b),a:B(t,null==n.a?1:n.a,null==r.a?1:r.a)}}function V(t,n){for(var r=[],e=0;e<t;e++)r.push(n);return r}function G(t,n){if(--n<=0)return t;var r=(t=Object.assign([],t)).length;do{for(var e=0;e<r;e++)t.push(t[e])}while(--n>0);return t}var Y,$=function(){function t(n){e(this,t),this.list=n,this.length=n.length}return o(t,[{key:"setAttribute",value:function(t,n){for(var r=this.list,e=0;e<this.length;e++)r[e].setAttribute(t,n)}},{key:"removeAttribute",value:function(t){for(var n=this.list,r=0;r<this.length;r++)n[r].removeAttribute(t)}},{key:"style",value:function(t,n){for(var r=this.list,e=0;e<this.length;e++)r[e].style[t]=n}}]),t}(),U=/-./g,Q=function(t,n){return n.toUpperCase()};function H(t){return"function"==typeof t?t:T}function J(t){return t?"function"==typeof t?t:Array.isArray(t)?function(t){var n=arguments.length>1&&void 0!==arguments[1]?arguments[1]:b;if(!Array.isArray(t))return n;switch(t.length){case 1:return S(t[0])||n;case 2:return S(t[0],t[1])||n;case 4:return x(t[0],t[1],t[2],t[3])||n}return n}(t,null):function(t,n){var r=arguments.length>2&&void 0!==arguments[2]?arguments[2]:b;switch(t){case"linear":return b;case"steps":return S(n.steps||1,n.jump||0)||r;case"bezier":case"cubic-bezier":return x(n.x1||0,n.y1||0,n.x2||0,n.y2||0)||r}return r}(t.type,t.value,null):null}function Z(t,n,r){var e=arguments.length>3&&void 0!==arguments[3]&&arguments[3],i=n.length-1;if(t<=n[0].t)return e?[0,0,n[0].v]:n[0].v;if(t>=n[i].t)return e?[i,1,n[i].v]:n[i].v;var o,u=n[0],a=null;for(o=1;o<=i;o++){if(!(t>n[o].t)){a=n[o];break}u=n[o]}return null==a?e?[i,1,n[i].v]:n[i].v:u.t===a.t?e?[o,1,a.v]:a.v:(t=(t-u.t)/(a.t-u.t),u.e&&(t=u.e(t)),e?[o,t,r(t,u.v,a.v)]:r(t,u.v,a.v))}function K(t,n){var r=arguments.length>2&&void 0!==arguments[2]?arguments[2]:null;return t&&t.length?"function"!=typeof n?null:("function"!=typeof r&&(r=null),function(e){var i=Z(e,t,n);return null!=i&&r&&(i=r(i)),i}):null}function W(t,n){return t.t-n.t}function X(t,n,e,i,o){var u,a="@"===e[0],l="#"===e[0],f=Y[e],s=T;switch(a?(u=e.substr(1),e=u.replace(U,Q)):l&&(e=e.substr(1)),r(f)){case"function":if(s=f(i,o,Z,J,e,a,n,t),l)return s;break;case"string":s=K(i,H(f));break;case"object":if((s=K(i,H(f.i),f.f))&&"function"==typeof f.u)return f.u(n,s,e,a,t)}return s?function(t,n,r){if(arguments.length>3&&void 0!==arguments[3]&&arguments[3])return t instanceof $?function(e){return t.style(n,r(e))}:function(e){return t.style[n]=r(e)};if(Array.isArray(n)){var e=n.length;return function(i){var o=r(i);if(null==o)for(var u=0;u<e;u++)t[u].removeAttribute(n);else for(var a=0;a<e;a++)t[a].setAttribute(n,o)}}return function(e){var i=r(e);null==i?t.removeAttribute(n):t.setAttribute(n,i)}}(n,e,s,a):null}function tt(t,n,e,i){if(!i||"object"!==r(i))return null;var o=null,u=null;return Array.isArray(i)?u=function(t){if(!t||!t.length)return null;for(var n=0;n<t.length;n++)t[n].e&&(t[n].e=J(t[n].e));return t.sort(W)}(i):(u=i.keys,o=i.data||null),u?X(t,n,e,u,o):null}function nt(t,n,r){if(!r)return null;var e=[];for(var i in r)if(r.hasOwnProperty(i)){var o=tt(t,n,i,r[i]);o&&e.push(o)}return e.length?e:null}function rt(t,n){if(!n.duration||n.duration<0)return null;var r=function(t,n){if(!n)return null;var r=[];if(Array.isArray(n))for(var e=n.length,i=0;i<e;i++){var o=n[i];if(2===o.length){var u=null;if("string"==typeof o[0])u=t.getElementById(o[0]);else if(Array.isArray(o[0])){u=[];for(var a=0;a<o[0].length;a++)if("string"==typeof o[0][a]){var l=t.getElementById(o[0][a]);l&&u.push(l)}u=u.length?1===u.length?u[0]:new $(u):null}if(u){var f=nt(t,u,o[1]);f&&(r=r.concat(f))}}}else for(var s in n)if(n.hasOwnProperty(s)){var c=t.getElementById(s);if(c){var h=nt(t,c,n[s]);h&&(r=r.concat(h))}}return r.length?r:null}(t,n.elements);return r?function(t,n){var r=arguments.length>2&&void 0!==arguments[2]?arguments[2]:1/0,e=arguments.length>3&&void 0!==arguments[3]?arguments[3]:1,i=arguments.length>4&&void 0!==arguments[4]&&arguments[4],o=arguments.length>5&&void 0!==arguments[5]?arguments[5]:1,u=t.length,a=e>0?n:0;i&&r%2==0&&(a=n-a);var l=null;return function(f,s){var c=f%n,h=1+(f-c)/n;s*=e,i&&h%2==0&&(s=-s);var v=!1;if(h>r)c=a,v=!0,-1===o&&(c=e>0?0:n);else if(s<0&&(c=n-c),c===l)return!1;l=c;for(var y=0;y<u;y++)t[y](c);return v}}(r,n.duration,n.iterations||1/0,n.direction||1,!!n.alternate,n.fill||1):null}function et(t){return+("0x"+(t.replace(/[^0-9a-fA-F]+/g,"")||27))}function it(t,n,r){return!t||!r||n>t.length?t:t.substring(0,n)+it(t.substring(n+1),r,r)}function ot(t){var n=arguments.length>1&&void 0!==arguments[1]?arguments[1]:27;return!t||t%n?t%n:ot(t/n,n)}function ut(t,n,r){if(t&&t.length){var e=et(r),i=et(n),o=ot(e)+5,u=it(t,ot(e,5),o);return u=u.replace(/\x7c$/g,"==").replace(/\x2f$/g,"="),u=function(t,n,r){var e=+("0x"+t.substring(0,4));t=t.substring(4);for(var i=n%e+r%27,o=[],u=0;u<t.length;u+=2)if("|"!==t[u]){var a=+("0x"+t[u]+t[u+1])-i;o.push(a)}else{var l=+("0x"+t.substring(u+1,u+1+4))-i;u+=3,o.push(l)}return String.fromCharCode.apply(String,o)}(u=(u=atob(u)).replace(/[\x41-\x5A]/g,""),i,e),u=JSON.parse(u)}}Number.isInteger||(Number.isInteger=function(t){return"number"==typeof t&&isFinite(t)&&Math.floor(t)===t}),Number.EPSILON||(Number.EPSILON=2220446049250313e-31);var at=function(){function t(n,r){var i=arguments.length>2&&void 0!==arguments[2]?arguments[2]:{};e(this,t),this._id=0,this._running=!1,this._rollingBack=!1,this._animations=n,this.duration=r.duration,this.alternate=r.alternate,this.fill=r.fill,this.iterations=r.iterations,this.direction=i.direction||1,this.speed=i.speed||1,this.fps=i.fps||100,this.offset=i.offset||0,this.rollbackStartOffset=0}return o(t,[{key:"_rollback",value:function(){var t=this,n=1/0,r=null;this.rollbackStartOffset=this.offset,this._rollingBack||(this._rollingBack=!0,this._running=!0);this._id=window.requestAnimationFrame((function e(i){if(t._rollingBack){null==r&&(r=i);var o=i-r,u=t.rollbackStartOffset-o,a=Math.round(u*t.speed);if(a>t.duration&&n!=1/0){var l=!!t.alternate&&a/t.duration%2>1,f=a%t.duration;a=(f+=l?t.duration:0)||t.duration}var s=t.fps?1e3/t.fps:0,c=Math.max(0,a);if(c<n-s){t.offset=c,n=c;for(var h=t._animations,v=h.length,y=0;y<v;y++)h[y](c,t.direction)}var g=!1;if(t.iterations>0&&-1===t.fill){var d=t.iterations*t.duration,p=d==a;a=p?0:a,t.offset=p?0:t.offset,g=a>d}a>0&&t.offset>=a&&!g?t._id=window.requestAnimationFrame(e):t.stop()}}))}},{key:"_start",value:function(){var t=this,n=arguments.length>0&&void 0!==arguments[0]?arguments[0]:0,r=-1/0,e=null,i={},o=function o(u){t._running=!0,null==e&&(e=u);var a=Math.round((u-e+n)*t.speed),l=t.fps?1e3/t.fps:0;if(a>r+l&&!t._rollingBack){t.offset=a,r=a;for(var f=t._animations,s=f.length,c=0,h=0;h<s;h++)i[h]?c++:(i[h]=f[h](a,t.direction),i[h]&&c++);if(c===s)return void t._stop()}t._id=window.requestAnimationFrame(o)};this._id=window.requestAnimationFrame(o)}},{key:"_stop",value:function(){this._id&&window.cancelAnimationFrame(this._id),this._running=!1,this._rollingBack=!1}},{key:"play",value:function(){!this._rollingBack&&this._running||(this._rollingBack=!1,this.rollbackStartOffset>this.duration&&(this.offset=this.rollbackStartOffset-(this.rollbackStartOffset-this.offset)%this.duration,this.rollbackStartOffset=0),this._start(this.offset))}},{key:"stop",value:function(){this._stop(),this.offset=0,this.rollbackStartOffset=0;var t=this.direction,n=this._animations;window.requestAnimationFrame((function(){for(var r=0;r<n.length;r++)n[r](0,t)}))}},{key:"reachedToEnd",value:function(){return this.iterations>0&&this.offset>=this.iterations*this.duration}},{key:"restart",value:function(){this._stop(),this.offset=0,this._start()}},{key:"pause",value:function(){this._stop()}},{key:"reverse",value:function(){this.direction=-this.direction}}],[{key:"build",value:function(r,e){return delete r.animationSettings,r.options=ut(r.options,r.root,"5c7f360c"),r.animations.map((function(t){var e=ut(t.s,r.root,"5c7f360c");for(var i in delete t.s,r.animationSettings||(r.animationSettings=n({},e)),e)e.hasOwnProperty(i)&&(t[i]=e[i])})),(r=function(t,n){if(Y=n,!t||!t.root||!Array.isArray(t.animations))return null;for(var r=document.getElementsByTagName("svg"),e=!1,i=0;i<r.length;i++)if(r[i].id===t.root&&!r[i].svgatorAnimation){(e=r[i]).svgatorAnimation=!0;break}if(!e)return null;var o=t.animations.map((function(t){return rt(e,t)})).filter((function(t){return!!t}));return o.length?{element:e,animations:o,animationSettings:t.animationSettings,options:t.options||void 0}:null}(r,e))?{el:r.element,options:r.options||{},player:new t(r.animations,r.animationSettings,r.options)}:null}},{key:"push",value:function(t){return this.build(t)}},{key:"init",value:function(){var t=this,n=window.__SVGATOR_PLAYER__&&window.__SVGATOR_PLAYER__["5c7f360c"];Array.isArray(n)&&n.splice(0).forEach((function(n){return t.build(n)}))}}]),t}();function lt(t){return d(t)+""}function ft(t){var n=arguments.length>1&&void 0!==arguments[1]?arguments[1]:" ";return t&&t.length?t.map(lt).join(n):""}function st(t){return t?null==t.a||t.a>=1?"rgb("+t.r+","+t.g+","+t.b+")":"rgba("+t.r+","+t.g+","+t.b+","+t.a+")":"transparent"}function ct(t){return t?"url(#"+t+")":"none"}!function(){for(var t=0,n=["ms","moz","webkit","o"],r=0;r<n.length&&!window.requestAnimationFrame;++r)window.requestAnimationFrame=window[n[r]+"RequestAnimationFrame"],window.cancelAnimationFrame=window[n[r]+"CancelAnimationFrame"]||window[n[r]+"CancelRequestAnimationFrame"];window.requestAnimationFrame||(window.requestAnimationFrame=function(n){var r=Date.now(),e=Math.max(0,16-(r-t)),i=window.setTimeout((function(){n(r+e)}),e);return t=r+e,i},window.cancelAnimationFrame=window.clearTimeout)}();var ht={f:null,i:function(t,n,r){return 0===t?n:1===t?r:{x:q(t,n.x,r.x),y:q(t,n.y,r.y)}},u:function(t,n){return function(r){var e=n(r);t.setAttribute("rx",lt(e.x)),t.setAttribute("ry",lt(e.y))}}},vt={f:null,i:function(t,n,r){return 0===t?n:1===t?r:{width:q(t,n.width,r.width),height:q(t,n.height,r.height)}},u:function(t,n){return function(r){var e=n(r);t.setAttribute("width",lt(e.width)),t.setAttribute("height",lt(e.height))}}};Object.freeze({M:2,L:2,Z:0,H:1,V:1,C:6,Q:4,T:2,S:4,A:7});var yt={},gt=null;function dt(t){var n=function(){if(gt)return gt;if("object"!==("undefined"==typeof document?"undefined":r(document))||!document.createElementNS)return{};var t=document.createElementNS("http://www.w3.org/2000/svg","svg");return t&&t.style?(t.style.position="absolute",t.style.opacity="0.01",t.style.zIndex="-9999",t.style.left="-9999px",t.style.width="1px",t.style.height="1px",gt={svg:t}):{}}().svg;if(!n)return function(t){return null};var e=document.createElementNS(n.namespaceURI,"path");e.setAttributeNS(null,"d",t),e.setAttributeNS(null,"fill","none"),e.setAttributeNS(null,"stroke","none"),n.appendChild(e);var i=e.getTotalLength();return function(t){var n=e.getPointAtLength(i*t);return{x:n.x,y:n.y}}}function pt(t){return yt[t]?yt[t]:yt[t]=dt(t)}function mt(t,n,r,e){if(!t||!e)return!1;var i=["M",t.x,t.y];if(n&&r&&(i.push("C"),i.push(n.x),i.push(n.y),i.push(r.x),i.push(r.y)),n?!r:r){var o=n||r;i.push("Q"),i.push(o.x),i.push(o.y)}return n||r||i.push("L"),i.push(e.x),i.push(e.y),i.join(" ")}function bt(t,n,r,e){var i=arguments.length>4&&void 0!==arguments[4]?arguments[4]:1,o=mt(t,n,r,e),u=pt(o);try{return u(i)}catch(t){return null}}function wt(t,n,r,e){var i=1-e;return i*i*t+2*i*e*n+e*e*r}function xt(t,n,r,e){return 2*(1-e)*(n-t)+2*e*(r-n)}function At(t,n,r,e){var i=arguments.length>4&&void 0!==arguments[4]&&arguments[4],o=bt(t,n,null,r,e);return o||(o={x:wt(t.x,n.x,r.x,e),y:wt(t.y,n.y,r.y,e)}),i&&(o.a=kt(t,n,r,e)),o}function kt(t,n,r,e){return Math.atan2(xt(t.y,n.y,r.y,e),xt(t.x,n.x,r.x,e))}function St(t,n,r,e,i){var o=i*i;return i*o*(e-t+3*(n-r))+3*o*(t+r-2*n)+3*i*(n-t)+t}function _t(t,n,r,e,i){var o=1-i;return 3*(o*o*(n-t)+2*o*i*(r-n)+i*i*(e-r))}function Ot(t,n,r,e,i){var o=arguments.length>5&&void 0!==arguments[5]&&arguments[5],u=bt(t,n,r,e,i);return u||(u={x:St(t.x,n.x,r.x,e.x,i),y:St(t.y,n.y,r.y,e.y,i)}),o&&(u.a=jt(t,n,r,e,i)),u}function jt(t,n,r,e,i){return Math.atan2(_t(t.y,n.y,r.y,e.y,i),_t(t.x,n.x,r.x,e.x,i))}function Mt(t,n,r){return t+(n-t)*r}function Pt(t,n,r){var e=arguments.length>3&&void 0!==arguments[3]&&arguments[3],i={x:Mt(t.x,n.x,r),y:Mt(t.y,n.y,r)};return e&&(i.a=Et(t,n)),i}function Et(t,n){return Math.atan2(n.y-t.y,n.x-t.x)}function It(t,n,r){var e=arguments.length>3&&void 0!==arguments[3]&&arguments[3];if(Ft(n)){if(Nt(r))return At(n,r.start,r,t,e)}else if(Ft(r)){if(n.end)return At(n,n.end,r,t,e)}else{if(n.end)return r.start?Ot(n,n.end,r.start,r,t,e):At(n,n.end,r,t,e);if(r.start)return At(n,r.start,r,t,e)}return Pt(n,r,t,e)}function Rt(t,n,r){var e=It(t,n,r,!0);return e.a=function(t){return arguments.length>1&&void 0!==arguments[1]&&arguments[1]?t+Math.PI:t}(e.a)/m,e}function Ft(t){return!t.type||"corner"===t.type}function Nt(t){return null!=t.start&&!Ft(t)}var Tt=new N;var Bt={f:lt,i:B},qt={f:lt,i:L};function Lt(t,n,r){return t.map((function(t){return function(t,n,r){var e=t.v;if(!e||"g"!==e.t||e.s||!e.v||!e.r)return t;var i=r.getElementById(e.r),o=i&&i.querySelectorAll("stop")||[];return e.s=e.v.map((function(t,n){var r=o[n]&&o[n].getAttribute("offset");return{c:t,o:r=d(parseInt(r)/100)}})),delete e.v,t}(t,0,r)}))}var Ct={gt:"gradientTransform",c:{x:"cx",y:"cy"},rd:"r",f:{x:"x1",y:"y1"},to:{x:"x2",y:"y2"}};function Dt(t,n,e,i,o,u,a,l){return Lt(t,0,l),n=function(t,n,r){for(var e,i,o,u=t.length-1,a={},l=0;l<=u;l++)(e=t[l]).e&&(e.e=n(e.e)),e.v&&"g"===(i=e.v).t&&i.r&&(o=r.getElementById(i.r))&&(a[i.r]={e:o,s:o.querySelectorAll("stop")});return a}(t,i,l),function(i){var o=e(i,t,zt);if(!o)return"none";if("c"===o.t)return st(o.v);if("g"===o.t){if(!n[o.r])return ct(o.r);var u=n[o.r];return function(t,n){for(var r=t.s,e=r.length;e<n.length;e++){var i=r[r.length-1].cloneNode();i.id=Yt(i.id),t.e.appendChild(i),r=t.s=t.e.querySelectorAll("stop")}for(var o=0,u=r.length,a=n.length-1;o<u;o++)r[o].setAttribute("stop-color",st(n[Math.min(o,a)].c)),r[o].setAttribute("offset",n[Math.min(o,a)].o)}(u,o.s),Object.keys(Ct).forEach((function(t){if(void 0!==o[t])if("object"!==r(Ct[t])){var n,e="gt"===t?(n=o[t],Array.isArray(n)?"matrix("+n.join(" ")+")":""):o[t],i=Ct[t];u.e.setAttribute(i,e)}else Object.keys(Ct[t]).forEach((function(n){if(void 0!==o[t][n]){var r=o[t][n],e=Ct[t][n];u.e.setAttribute(e,r)}}))})),ct(o.r)}return"none"}}function zt(t,r,e){if(0===t)return r;if(1===t)return e;if(r&&e){var i=r.t;if(i===e.t)switch(r.t){case"c":return{t:i,v:z(t,r.v,e.v)};case"g":if(r.r===e.r){var o={t:i,s:Vt(t,r.s,e.s),r:r.r};return r.gt&&e.gt&&(o.gt=function(t,n,r){var e=n.length;if(e!==r.length)return T(t,n,r);for(var i=new Array(e),o=0;o<e;o++)i[o]=B(t,n[o],r[o]);return i}(t,r.gt,e.gt)),r.c?(o.c=C(t,r.c,e.c),o.rd=q(t,r.rd,e.rd)):r.f&&(o.f=C(t,r.f,e.f),o.to=C(t,r.to,e.to)),o}}if("c"===r.t&&"g"===e.t||"c"===e.t&&"g"===r.t){var u="c"===r.t?r:e,a="g"===r.t?n({},r):n({},e),l=a.s.map((function(t){return{c:u.v,o:t.o}}));return a.s="c"===r.t?Vt(t,l,a.s):Vt(t,a.s,l),a}}return T(t,r,e)}function Vt(t,n,r){if(n.length===r.length)return n.map((function(n,e){return Gt(t,n,r[e])}));for(var e=Math.max(n.length,r.length),i=[],o=0;o<e;o++){var u=Gt(t,n[Math.min(o,n.length-1)],r[Math.min(o,r.length-1)]);i.push(u)}return i}function Gt(t,n,r){return{o:L(t,n.o,r.o||0),c:z(t,n.c,r.c||{})}}function Yt(t){return t.replace(/-fill-([0-9]+)$/,(function(t,n){return"-fill-"+(+n+1)}))}var $t={fill:Dt,"fill-opacity":qt,stroke:Dt,"stroke-opacity":qt,"stroke-width":Bt,"stroke-dashoffset":{f:lt,i:B},"stroke-dasharray":{f:function(t){var n=arguments.length>1&&void 0!==arguments[1]?arguments[1]:" ";return t&&t.length>0&&(t=t.map((function(t){return d(t,4)}))),ft(t,n)},i:function(t,n,r){var e,i,o,u=n.length,a=r.length;if(u!==a)if(0===u)n=V(u=a,0);else if(0===a)a=u,r=V(u,0);else{var l=(o=(e=u)*(i=a)/function(t,n){for(var r;n;)r=n,n=t%n,t=r;return t||1}(e,i))<0?-o:o;n=G(n,Math.floor(l/u)),r=G(r,Math.floor(l/a)),u=a=l}for(var f=[],s=0;s<u;s++)f.push(d(q(t,n[s],r[s])));return f}},opacity:qt,transform:function(t,n,e,i){if(!(t=function(t,n){if(!t||"object"!==r(t))return null;var e=!1;for(var i in t)t.hasOwnProperty(i)&&(t[i]&&t[i].length?(t[i].forEach((function(t){t.e&&(t.e=n(t.e))})),e=!0):delete t[i]);return e?t:null}(t,i)))return null;var o=function(r,i,o){var u=arguments.length>3&&void 0!==arguments[3]?arguments[3]:null;return t[r]?e(i,t[r],o):n&&n[r]?n[r]:u};return n&&n.a&&t.o?function(n){var r=e(n,t.o,Rt);return Tt.recomposeSelf(r,o("r",n,B,0)+r.a,o("k",n,C),o("s",n,C),o("t",n,C)).toString()}:function(t){return Tt.recomposeSelf(o("o",t,It,null),o("r",t,B,0),o("k",t,C),o("s",t,C),o("t",t,C)).toString()}},r:Bt,"#size":vt,"#radius":ht,_:function(t,n){if(Array.isArray(t))for(var r=0;r<t.length;r++)this[t[r]]=n;else this[t]=n}},Ut=function(t){!function(t,n){if("function"!=typeof n&&null!==n)throw new TypeError("Super expression must either be null or a function");t.prototype=Object.create(n&&n.prototype,{constructor:{value:t,writable:!0,configurable:!0}}),n&&l(t,n)}(u,t);var n,r,i=(n=u,r=f(),function(){var t,e=a(n);if(r){var i=a(this).constructor;t=Reflect.construct(e,arguments,i)}else t=e.apply(this,arguments);return c(this,t)});function u(){return e(this,u),i.apply(this,arguments)}return o(u,null,[{key:"build",value:function(t){var n=h(a(u),"build",this).call(this,t,$t);if(!n)return null;n.el,n.options,function(t,n,r){t.play()}(n.player)}}]),u}(at);return Ut.init(),Ut}));
(function(s,i,o,w){w[o]=w[o]||{};w[o][s]=w[o][s]||[];w[o][s].push(i);})('5c7f360c',{"root":"eDu0zGCv39x1","animations":[{"elements":{"eDu0zGCv39x15":{"opacity":[{"t":1500,"v":0},{"t":2000,"v":1},{"t":5000,"v":1},{"t":5500,"v":0}]},"eDu0zGCv39x17":{"opacity":[{"t":400,"v":0},{"t":900,"v":1},{"t":6000,"v":1},{"t":6500,"v":0}]},"eDu0zGCv39x19":{"opacity":[{"t":0,"v":0},{"t":400,"v":1},{"t":6500,"v":1},{"t":7000,"v":0}]},"eDu0zGCv39x21":{"opacity":[{"t":900,"v":0},{"t":1400,"v":1},{"t":5500,"v":1},{"t":6000,"v":0}]}},"s":"MXDA1M2NkNzRiNmM3YzMRPYjNjNmJiYzFUYzAO3NDhjOGE4N0w4MjgyYN2U3NGI2YmJjNGI3YXjVjNmJiYzFjMDc0OGJM4MzdlNzRiYmM2YjdCjNFViM0RjNmJiYzFjXMGM1NzQ4YzgyN2U3NMGI4RmJiYmViZTc0OGNM4MzdlNzRiM2JlYzZGiN2M0YzBLYjNjNmI3ANzQ4Y2I4YjNiZWM1YIjc3ZTc0YzVjMmI3YjAdCYjY3NDhjODNjZg|X"}],"options":"MHDAxMDg4MmY4MEE4MTDZlN2Y4MTJmNDcyZjcI5N2M2ZTcxMmY4YVI/P"},'__SVGATOR_PLAYER__',window)]]></script></svg>
