<?xml version="1.0" encoding="iso-8859-1"?>
<svg version="1.1" id="Layer_1" xmlns="http://www.w3.org/2000/svg" xmlns:xlink="http://www.w3.org/1999/xlink" x="0px" y="0px"
	 viewBox="0 0 512 512" style="enable-background:new 0 0 512 512;" xml:space="preserve">
<path style="fill:#000;" d="M471.763,353.605c19.1-33.011,30.038-71.336,30.038-112.218
	c0-123.935-100.469-224.404-224.404-224.404v224.404L471.763,353.605z"/>
<path style="fill:#555;" d="M234.603,46.208c-123.935,0-224.404,100.469-224.404,224.404c0,40.881,10.938,79.207,30.038,112.218
	l194.366-112.218L234.603,46.208L234.603,46.208z"/>
<path style="fill:#222;" d="M234.603,270.612L40.237,382.83C79.04,449.894,151.55,495.016,234.603,495.016
	s155.563-45.122,194.366-112.186L234.603,270.612z"/>
<g>
	<path style="fill:#ce571d;" d="M443.286,75.498c-44.31-44.31-103.224-68.714-165.889-68.714c-5.632,0-10.199,4.567-10.199,10.199
		v224.404c0,3.643,1.944,7.011,5.1,8.833l194.366,112.218c1.606,0.927,3.36,1.369,5.089,1.369c3.522,0,6.949-1.827,8.838-5.093
		C501.139,323.202,512,282.63,512,241.388C512,178.722,487.596,119.809,443.286,75.498z M467.825,339.555L287.595,235.5V27.423
		c113.399,5.338,204.007,99.269,204.007,213.965C491.602,275.627,483.408,309.353,467.825,339.555z"/>
	<path style="fill:#000;" d="M434.07,373.997L244.802,264.724V46.208c0-5.632-4.566-10.199-10.199-10.199
		c-62.665,0-121.579,24.404-165.889,68.714S0,207.947,0,270.612c0,41.238,10.859,81.806,31.404,117.315
		c0.002,0.003,0.003,0.006,0.005,0.009c20.259,35.014,49.388,64.379,84.238,84.922c35.911,21.168,77.046,32.358,118.955,32.358
		s83.044-11.19,118.956-32.358c34.851-20.542,63.979-49.908,84.238-84.922c1.355-2.343,1.724-5.127,1.025-7.743
		C438.123,377.58,436.414,375.351,434.07,373.997z M224.404,56.647v208.077L44.175,368.779
		c-15.582-30.201-23.776-63.928-23.776-98.166C20.398,155.916,111.005,61.986,224.404,56.647z M234.603,282.389l180.215,104.047
		c-39.269,60.934-107.403,98.382-180.215,98.382S93.658,447.371,54.389,386.437L234.603,282.389z"/>
	<path style="fill:#ce571d;" d="M409.989,270.614l-2.041-1.172c-4.885-2.808-11.119-1.122-13.924,3.762
		c-2.806,4.884-1.121,11.118,3.762,13.924l2.041,1.172c1.601,0.92,3.347,1.358,5.071,1.358c3.533,0,6.968-1.838,8.854-5.121
		C416.558,279.654,414.873,273.42,409.989,270.614z"/>
	<path style="fill:#ce571d;" d="M381.432,254.209l-67.316-38.67c-4.885-2.809-11.119-1.122-13.924,3.762
		c-2.806,4.884-1.122,11.118,3.762,13.924l67.316,38.67c1.601,0.92,3.347,1.358,5.071,1.358c3.533,0,6.968-1.838,8.854-5.121
		C388.001,263.249,386.316,257.015,381.432,254.209z"/>
</g>
</svg>
